<?xml version="1.0" encoding="utf-8"?>
<!-- Generator: Adobe Illustrator 22.0.1, SVG Export Plug-In . SVG Version: 6.00 Build 0)  -->
<svg version="1.1" id="Layer_1" xmlns="http://www.w3.org/2000/svg" xmlns:xlink="http://www.w3.org/1999/xlink" x="0px" y="0px"
	 viewBox="0 0 223.8 194.3" style="enable-background:new 0 0 223.8 194.3;" xml:space="preserve">
<style type="text/css">
	.st0{fill:#D10A1C;}
	.st1{fill:#FFFFFF;}
</style>
<path class="st0" d="M212.7,166.2c20-29.5,12.3-69.5-17.2-89.5c-20.8-14.1-47.9-14.8-69.4-1.9c5.7-35.1-18.1-68.2-53.2-74
	C48.2-3.2,23.3,7.5,9.2,28.3C-1.4,43.9,0,80,0.1,80.3v113.9h166.8h-0.2C185.4,192,202.2,181.8,212.7,166.2L212.7,166.2z"/>
<path class="st1" d="M52.7,102.5L47,129.4H26.4l7.8-36.8c0.3-1.5-0.3-3-2.1-3c-0.7-0.1-1.5,0.2-1.9,0.8c-2,2.5-6.9,1.2-4.6-4
	c2.7-5.2,7.5-8.2,15.3-8.2c6.7,0,9.8,3.6,12.3,8.9h0.6c4.8-4.8,10.5-9.6,17.8-9.6c5,0,11.2,2,13,8.7c4.6-4.4,8.6-8.7,15.3-8.7
	c6.1,0,13.4,1.9,11.7,14.1c-7.1,4.6-12.6,12.8-12.7,21.9c0,7.5,3.4,12.8,8.7,15.6c-2.7,0.9-5.5,1.4-8.4,1.3
	c-10.6,0-15.6-7.9-13.3-17.5l3.3-13.8c0.8-3.4,2-8.4-2-8.4c-2.6,0-4.4,2.7-6,10.4l-5.8,28.4H54.8L61,99.1c0.7-3.4,2-8.4-2-8.4
	C56.1,90.6,54.6,93.7,52.7,102.5z M127.5,88.8c6.6,0,14.5,3,14.5,10.9c-0.1,11.7-15.6,13.8-22.4,15.9c0.9,3.3,3,4.4,5.7,4.4
	s7.1-1.7,11-4.2c4.5-3,8.8-6,10.3-9c0.4-1.3,0.7-2.6,0.8-3.9c0.2-0.9-0.2-1.9-1.3-1.9c-2.8,0-1.4-7.3,5.6-7.3s9.8,5,8.5,11.2
	l-1.8,8.8c-0.4,2.2-1.2,5.4,1.3,5.4c1.8,0,2.8-1.9,4-7.6l3.6-17.2h13.2l-5,23.6c-0.2,0.9,0.1,1.9,1.3,1.9c1,0,1.8-0.7,1.9-1.8
	c0.2-1.5,3.4-2.1,3.4,0.6c0,5.5-4.5,8.4-11,8.4c-4.3,0-6.3-2.3-7.8-5.7H163c-3.1,3.1-6.7,6.2-11.3,6.2c-3.3,0-7.1-0.9-7.5-6
	l-5.7,3.9c-5.1,3.5-11.1,5.2-17.2,5c-10.6,0-18.8-6-18.8-17C102.5,100.1,115.5,88.8,127.5,88.8L127.5,88.8z M119.7,108.4
	c1.9-0.5,3.8-1.2,5.6-2.1c1.8-1,3.1-2.4,3.2-4.4s-0.8-3.4-2.4-3.4C122.9,98.5,120.6,103.3,119.7,108.4z M134.9,147.1
	c-0.1,2.2,0.6,4.3,1.9,6c-2.2,5.3-6.6,9.2-13.1,9.2c-2.4-0.1-4.6-1-6.3-2.7l-2.7,12.1H103l6.6-30.9c0.2-0.8-0.2-1.5-1-1.7
	c-0.1,0-0.2,0-0.3-0.1c-0.6,0.1-1.2,0.1-1.8,0.1c-0.4-0.1-0.7-0.4-0.9-0.8c-1.1-2.2,1.7-6.1,7.8-5.8c3,0.2,4.7,1.4,5.5,3.7
	c1.9-2.3,4.7-3.7,7.7-3.7c5,0,9.2,2.2,11,6.5C135.9,141.5,134.9,144.3,134.9,147.1L134.9,147.1z M126.2,142.9c0-1.3-0.2-3.3-1.8-3.3
	c-1.8,0-3.2,2.4-3.8,5.2l-0.9,4.1c-0.3,1.6-1,6.6,1.6,6.6C124.8,155.5,126.2,145.8,126.2,142.9L126.2,142.9z M183.6,138.7
	c0.1,2.3-1.6,4.3-3.9,4.4c-0.2,0-0.3,0-0.5,0c-0.8,0-1.5-0.2-2.2-0.5l-0.2-0.1c-0.8-0.5-1.1-1.1-2.3-1.1c-1.4,0-1.8,4.4-2.1,5.6
	l-2.9,13.9h-11.2l4.2-20c0.1-0.8-0.2-1.7-1.1-1.7c-0.5,0.1-0.9,0.2-1.3,0.5c-0.6,6.2-9.1,7.5-13,8.7c0.3,1.6,1.7,2.7,3.3,2.6
	c2.3-0.2,4.6-1.1,6.4-2.5l2.8-2l-1.7,7.7c-2.9,2-6.3,2.9-9.8,2.8c-6.1,0-10.9-3.4-10.9-9.8c0-7.7,7.5-14.4,14.5-14.4
	c2.6,0,5.5,0.8,7.2,2.7c1.4-1.7,3.6-2.5,6.9-2.5c3.5,0,4.6,1.7,5.6,4.8h0.4c1.2-2.5,3.2-4.6,6.6-4.6c1.5,0,2.9,0.5,3.9,1.5
	C183.2,135.7,183.7,137.2,183.6,138.7L183.6,138.7z M152.2,140.3c0-1.1-0.5-2-1.4-2c-1.8,0-3.1,2.8-3.6,5.8c1.1-0.3,2.2-0.7,3.2-1.2
	C151.5,142.4,152.2,141.5,152.2,140.3L152.2,140.3z M105.9,150.7c0.1-0.7-0.5-1.3-1.1-1.4c-0.6-0.1-1.2,0.3-1.3,0.9
	c0,0.7-0.7,1.3-1.4,1.3c0,0,0,0,0,0c-0.9,0-1.1-0.7-1-1.4l3.6-17h-9.5l-2.6,12.5c-0.9,4.1-1.6,5.5-2.9,5.5c-1.8,0-1.2-2.3-0.9-3.9
	l1.3-6.4c0.9-4.5-1.2-8.1-6.2-8.1c-2.9,0-5,0.8-6.3,2.3c-0.2,0.3-0.4,0.5-0.6,0.8c-2-3.1-6.7-4.2-10.3-4.2c-7.6,0-15,4.3-15.1,12.6
	c-0.1,9.4,11.9,11,11.8,15.6c0.1,1.2-0.8,2.2-2,2.2c-0.1,0-0.2,0-0.4,0c-0.8,0-1.5-0.2-2.2-0.6c-0.3-3.2-2.8-5-5.9-5
	c-2.3,0.1-4.2,1.9-4.3,4.3c-0.1,5.9,7.2,7.7,11.9,7.7c8,0,16-2.9,16.1-12.2c0.1-9.8-12.9-12.9-12.8-16.2c-0.1-1.2,0.8-2.3,2.1-2.4
	c0.1,0,0.2,0,0.3,0c1,0,2,0.3,2.8,0.8c0.3,2.6,1.9,4.9,4.7,4.9c2.2,0.1,4-1.6,4.1-3.7c0,0,0,0,0,0c0.2-1,0.4-1.9,1.8-1.8
	c0.8,0,1.1,0.7,1,1.4l-2,9.8c-1.5,7,2.1,8,5.1,8c3.4,0,6-2.2,8.2-4.4h0.3c1.1,2.4,2.6,4.1,5.7,4.1
	C102.6,156.8,105.9,154.7,105.9,150.7L105.9,150.7z"/>
</svg>
